<svg data-v-423bf9ae="" xmlns="http://www.w3.org/2000/svg" viewBox="0 0 6433 6241" class="iconLeftSlogan"><!----><!----><!----><g data-v-423bf9ae="" id="1274028c-aab5-4768-8194-2e8cf032228e" fill="white" transform="matrix(5.494505456117445,0,0,5.494505456117445,6148.013648970722,-12.142857267618304)"><path d="M4.61 13.00L0.53 13.00L0.53 12.41L0.71 12.41Q0.95 12.41 1.16 12.37Q1.37 12.34 1.52 12.23Q1.68 12.13 1.77 11.93Q1.86 11.73 1.86 11.40L1.86 11.40L1.86 4.59Q1.86 4.27 1.77 4.07Q1.68 3.87 1.52 3.76Q1.37 3.66 1.16 3.62Q0.95 3.59 0.71 3.59L0.71 3.59L0.53 3.59L0.53 3.00L4.61 3.00L4.61 3.59L4.42 3.59Q4.19 3.59 3.98 3.62Q3.77 3.66 3.61 3.76Q3.46 3.87 3.37 4.07Q3.27 4.27 3.27 4.59L3.27 4.59L3.27 11.40Q3.27 11.73 3.37 11.93Q3.46 12.13 3.61 12.23Q3.77 12.34 3.98 12.37Q4.19 12.41 4.42 12.41L4.42 12.41L4.61 12.41L4.61 13.00ZM9.26 12.41L9.30 12.41L9.30 13.00L5.53 13.00L5.53 12.41L5.65 12.41Q5.89 12.41 6.09 12.37Q6.30 12.34 6.46 12.23Q6.61 12.13 6.70 11.93Q6.79 11.73 6.79 11.40L6.79 11.40L6.79 7.03Q6.79 6.73 6.70 6.54Q6.61 6.35 6.45 6.25Q6.30 6.15 6.09 6.11Q5.88 6.08 5.65 6.08L5.65 6.08L5.61 6.08L5.61 5.49L7.87 5.49L8.05 6.62L8.12 6.62Q8.34 6.23 8.58 5.98Q8.83 5.74 9.10 5.60Q9.37 5.46 9.67 5.40Q9.97 5.35 10.31 5.35L10.31 5.35Q10.86 5.35 11.30 5.51Q11.73 5.67 12.03 6.01Q12.34 6.34 12.50 6.86Q12.66 7.38 12.66 8.09L12.66 8.09L12.66 11.40Q12.66 11.73 12.74 11.93Q12.82 12.13 12.96 12.23Q13.10 12.34 13.30 12.37Q13.50 12.41 13.73 12.41L13.73 12.41L13.78 12.41L13.78 13.00L11.34 13.00L11.34 8.16Q11.34 7.70 11.26 7.35Q11.18 6.99 11.00 6.75Q10.81 6.50 10.52 6.37Q10.23 6.25 9.80 6.25L9.80 6.25Q9.32 6.25 9.00 6.43Q8.67 6.62 8.48 6.93Q8.28 7.25 8.19 7.66Q8.11 8.07 8.11 8.52L8.11 8.52L8.11 11.47Q8.11 11.78 8.20 11.97Q8.29 12.15 8.45 12.25Q8.61 12.35 8.81 12.38Q9.02 12.41 9.26 12.41L9.26 12.41ZM18.34 12.41L18.87 12.41L18.87 13.00L14.55 13.00L14.55 12.41L14.73 12.41Q14.97 12.41 15.18 12.37Q15.39 12.34 15.54 12.23Q15.70 12.13 15.79 11.93Q15.88 11.73 15.88 11.40L15.88 11.40L15.88 6.15L14.60 6.15L14.60 5.49L15.88 5.49L15.88 4.79Q15.88 4.16 16.05 3.68Q16.22 3.21 16.54 2.88Q16.86 2.55 17.32 2.38Q17.78 2.21 18.35 2.21L18.35 2.21Q18.90 2.21 19.28 2.29Q19.65 2.36 19.88 2.49Q20.11 2.62 20.21 2.80Q20.32 2.97 20.32 3.19L20.32 3.19Q20.32 3.38 20.23 3.53Q20.15 3.68 19.99 3.78Q19.84 3.88 19.63 3.93Q19.42 3.98 19.17 3.98L19.17 3.98Q19.17 3.77 19.12 3.56Q19.08 3.36 18.97 3.21Q18.87 3.05 18.69 2.95Q18.51 2.86 18.25 2.86L18.25 2.86Q17.94 2.86 17.74 2.97Q17.54 3.09 17.42 3.32Q17.29 3.55 17.24 3.88Q17.19 4.22 17.19 4.66L17.19 4.66L17.19 5.49L19.17 5.49L19.17 6.15L17.19 6.15L17.19 11.40Q17.19 11.73 17.28 11.93Q17.38 12.13 17.53 12.23Q17.68 12.34 17.90 12.37Q18.11 12.41 18.34 12.41L18.34 12.41ZM26.65 9.23L26.65 9.23Q26.65 11.20 25.81 12.17Q24.97 13.13 23.36 13.13L23.36 13.13Q22.60 13.13 22.00 12.89Q21.40 12.65 20.98 12.17Q20.56 11.68 20.33 10.95Q20.11 10.21 20.11 9.23L20.11 9.23Q20.11 7.27 20.94 6.31Q21.77 5.35 23.40 5.35L23.40 5.35Q24.16 5.35 24.76 5.59Q25.36 5.82 25.78 6.31Q26.20 6.79 26.42 7.52Q26.65 8.24 26.65 9.23ZM21.46 9.23L21.46 9.23Q21.46 10.01 21.57 10.60Q21.67 11.20 21.90 11.60Q22.13 12.00 22.49 12.20Q22.86 12.41 23.39 12.41L23.39 12.41Q23.91 12.41 24.27 12.20Q24.64 12.00 24.86 11.60Q25.09 11.20 25.19 10.60Q25.29 10.01 25.29 9.23L25.29 9.23Q25.29 8.45 25.18 7.86Q25.08 7.27 24.86 6.88Q24.63 6.49 24.26 6.29Q23.90 6.09 23.37 6.09L23.37 6.09Q22.85 6.09 22.48 6.29Q22.12 6.49 21.90 6.88Q21.67 7.27 21.57 7.86Q21.46 8.45 21.46 9.23ZM31.13 12.39L31.13 12.39Q31.38 12.39 31.60 12.37Q31.81 12.34 32.03 12.30L32.03 12.30L32.03 12.91Q31.94 12.95 31.79 13.00Q31.65 13.04 31.48 13.07Q31.32 13.10 31.13 13.11Q30.95 13.13 30.78 13.13L30.78 13.13Q30.25 13.13 29.87 13.02Q29.48 12.91 29.24 12.65Q28.99 12.40 28.87 11.98Q28.75 11.57 28.75 10.96L28.75 10.96L28.75 6.29L27.69 6.29L27.69 5.73Q27.94 5.73 28.24 5.63Q28.55 5.52 28.78 5.28L28.78 5.28Q29.02 5.02 29.17 4.67Q29.31 4.31 29.42 3.77L29.42 3.77L30.06 3.77L30.06 5.49L31.90 5.49L31.90 6.29L30.06 6.29L30.06 11.01Q30.06 11.72 30.35 12.06Q30.65 12.39 31.13 12.39ZM34.41 10.96L34.41 10.96Q34.41 11.62 34.68 11.95Q34.96 12.27 35.54 12.27L35.54 12.27Q35.96 12.27 36.31 12.13Q36.65 12.00 36.90 11.74Q37.14 11.49 37.27 11.13Q37.40 10.77 37.40 10.32L37.40 10.32L37.40 9.19L36.50 9.23Q35.91 9.26 35.51 9.38Q35.11 9.50 34.86 9.71Q34.62 9.93 34.51 10.24Q34.41 10.55 34.41 10.96ZM36.10 6.05L36.10 6.05Q35.70 6.05 35.45 6.16Q35.20 6.28 35.06 6.48Q34.92 6.69 34.87 6.97Q34.82 7.25 34.82 7.57L34.82 7.57Q34.24 7.57 33.94 7.38Q33.63 7.18 33.63 6.69L33.63 6.69Q33.63 6.33 33.83 6.08Q34.03 5.82 34.37 5.66Q34.72 5.50 35.18 5.43Q35.64 5.35 36.16 5.35L36.16 5.35Q36.80 5.35 37.28 5.48Q37.75 5.61 38.08 5.89Q38.40 6.18 38.56 6.64Q38.72 7.10 38.72 7.77L38.72 7.77L38.72 11.40Q38.72 11.70 38.77 11.89Q38.81 12.08 38.92 12.20Q39.02 12.31 39.19 12.36Q39.35 12.41 39.59 12.41L39.59 12.41L39.63 12.41L39.63 13.00L37.73 13.00L37.52 11.79L37.40 11.79Q37.18 12.09 36.98 12.33Q36.77 12.58 36.52 12.76Q36.28 12.93 35.97 13.03Q35.66 13.13 35.22 13.13L35.22 13.13Q34.75 13.13 34.35 13.00Q33.95 12.87 33.66 12.59Q33.37 12.31 33.21 11.89Q33.04 11.47 33.04 10.90L33.04 10.90Q33.04 9.78 33.84 9.24Q34.63 8.70 36.24 8.65L36.24 8.65L37.40 8.61L37.40 7.77Q37.40 7.40 37.36 7.08Q37.32 6.76 37.18 6.53Q37.04 6.30 36.79 6.18Q36.53 6.05 36.10 6.05ZM44.19 13.13L44.19 13.13Q43.50 13.13 42.91 12.92Q42.32 12.70 41.90 12.24Q41.47 11.77 41.24 11.04Q41.00 10.32 41.00 9.28L41.00 9.28Q41.00 8.16 41.24 7.41Q41.47 6.65 41.89 6.19Q42.31 5.74 42.89 5.54Q43.46 5.35 44.12 5.35L44.12 5.35Q44.56 5.35 44.99 5.44Q45.42 5.52 45.77 5.70Q46.12 5.88 46.34 6.15Q46.56 6.42 46.56 6.78L46.56 6.78Q46.56 7.27 46.25 7.46Q45.93 7.66 45.31 7.66L45.31 7.66Q45.31 7.33 45.25 7.04Q45.20 6.75 45.07 6.52Q44.93 6.30 44.70 6.18Q44.47 6.05 44.12 6.05L44.12 6.05Q43.72 6.05 43.39 6.20Q43.07 6.35 42.83 6.72Q42.60 7.09 42.48 7.71Q42.36 8.33 42.36 9.27L42.36 9.27Q42.36 10.76 42.85 11.49Q43.35 12.22 44.47 12.22L44.47 12.22Q45.12 12.22 45.61 11.95Q46.09 11.68 46.33 11.25L46.33 11.25Q46.44 11.33 46.50 11.46Q46.57 11.60 46.57 11.79L46.57 11.79Q46.57 12.03 46.42 12.27Q46.27 12.51 45.98 12.70Q45.68 12.89 45.23 13.01Q44.79 13.13 44.19 13.13ZM50.83 12.39L50.83 12.39Q51.08 12.39 51.30 12.37Q51.51 12.34 51.73 12.30L51.73 12.30L51.73 12.91Q51.64 12.95 51.50 13.00Q51.35 13.04 51.18 13.07Q51.02 13.10 50.83 13.11Q50.65 13.13 50.48 13.13L50.48 13.13Q49.95 13.13 49.57 13.02Q49.18 12.91 48.94 12.65Q48.69 12.40 48.57 11.98Q48.45 11.57 48.45 10.96L48.45 10.96L48.45 6.29L47.39 6.29L47.39 5.73Q47.64 5.73 47.94 5.63Q48.25 5.52 48.48 5.28L48.48 5.28Q48.72 5.02 48.87 4.67Q49.01 4.31 49.12 3.77L49.12 3.77L49.77 3.77L49.77 5.49L51.60 5.49L51.60 6.29L49.77 6.29L49.77 11.01Q49.77 11.72 50.06 12.06Q50.35 12.39 50.83 12.39Z"></path></g><!----><g data-v-423bf9ae="" id="0381e665-150f-4251-a0e8-b144b4536a6c" transform="matrix(8.32666761610243,0,0,8.32666761610243,-1098.5827776150254,-1043.0340387132792)" stroke="none" fill="white"><path d="M661.8 226L637 215.3c-12.6-5.4-27.4.4-32.8 13L567.3 314 269.8 185.9c-4.2-34.1-33.4-60.6-68.6-60.6-38.1 0-69.2 31-69.2 69.1 0 38.1 31 69.2 69.2 69.2 12.3 0 23.9-3.2 33.9-8.9l322.4 138.9 27.1 11.7c10.8 4.7 23.3 1 30-8.2 1.1-1.5 2-3.1 2.7-4.8l11.1-25.7.2-.4 46.3-107.5c5.4-12.5-.5-27.2-13.1-32.7zm-460.6 5.9c-2.4 0-4.7-.2-7-.7-17.3-3.3-30.4-18.5-30.4-36.8 0-20.6 16.8-37.4 37.4-37.4 11.2 0 21.2 4.9 28 12.7 5.8 6.6 9.4 15.3 9.4 24.8 0 20.6-16.8 37.4-37.4 37.4z"></path><path d="M628.3 366.7c-.1.3-.2.5-.3.8l-10.7 24.8s0 .1-.1.1l11.1-25.7zM545.3 279.8L387.9 212c-6.1-2.6-8.9-9.7-6.3-15.8l21-48.7c2.6-6.1 9.7-8.9 15.8-6.3L575.8 209c6.1 2.6 8.9 9.7 6.3 15.8l-21 48.7c-2.6 6.1-9.7 8.9-15.8 6.3zM614.5 397.2c-6.7 9.2-19.2 12.9-30.1 8.3l-24.8-10.7c-.7-.3-1.5-.7-2.2-1.1l27.1 11.7c10.9 4.6 23.3 1 30-8.2zM630.3 632.5l-24.9-10.6s-.1 0-.1-.1l25 10.7zM717.5 549.4l67.1-157.7c2.6-6.1 9.7-8.9 15.7-6.3l48.7 20.7c6.1 2.6 8.9 9.7 6.3 15.7l-67.1 157.7c-2.6 6.1-9.7 8.9-15.7 6.3l-48.7-20.7c-6-2.6-8.9-9.7-6.3-15.7zM597 616.1l.2.2c0-.1-.1-.1-.2-.2.1 0 .1 0 0 0zM597.2 616.2c.3.3.5.6.8.8-.3-.2-.5-.5-.8-.8zM596.1 615c.3.4.6.7.9 1-6.7-7-9-17.6-5-27l10.6-24.9c.3-.7.7-1.4 1.1-2.1l-11.5 27.1c-1.5 3.6-2.2 7.4-2 11.1 0 .3 0 .5.1.7 0 .3 0 .5.1.8v.1c.1.4.1.9.2 1.3s.1.8.2 1.2c0 .2.1.4.2.6.1.4.2.7.3 1 .1.4.2.8.4 1.2 0 .2.1.3.2.5.1.4.3.8.5 1.1.2.4.3.7.5 1.1.1.2.2.5.4.7 0 .1.1.2.1.3.2.3.3.6.5.8.1.3.3.5.5.7.2.3.4.7.7 1 .2.2.3.5.5.7 0 .4.2.7.5 1zM599.3 618.2c-.4-.4-.8-.7-1.2-1.1.3.3.7.7 1.2 1.1zM375.8 610.9L365 636.6c.1-.2.2-.5.3-.7l10.5-24.9v-.1zM448.8 722.8l158 66.4c6.1 2.6 9 9.6 6.4 15.7l-20.5 48.8c-2.6 6.1-9.6 9-15.7 6.4l-158-66.4c-6.1-2.6-9-9.6-6.4-15.7l20.5-48.8c2.5-6.1 9.6-9 15.7-6.4zM435.5 609l-27.1-11.4c-9.7-4-20.6-1.5-27.5 5.6 6.9-7.2 17.9-9.8 27.6-5.7l24.9 10.5c.8.3 1.5.6 2.1 1zM385.7 381.4l-26-10.8c.3.1.6.2.9.4l25 10.4c.1-.1.1-.1.1 0zM274.1 454.8l-65.7 158.3c-2.5 6.1-9.6 9-15.7 6.5l-48.9-20.3c-6.1-2.5-9-9.6-6.5-15.7L203 425.4c2.5-6.1 9.6-9 15.7-6.5l48.9 20.3c6.2 2.5 9.1 9.5 6.5 15.6z"></path><path d="M798.8 133c-38.1 0-69.2 31-69.2 69.1 0 13.9 4.1 26.8 11.2 37.6L603.7 562l-11.5 27.1c-1.5 3.6-2.2 7.4-2 11.1 0 .2 0 .5.1.7 0 .3 0 .5.1.8v.1c.1.4.1.9.2 1.3s.1.8.2 1.2c0 .2.1.4.2.6.1.4.2.7.3 1 .1.4.2.8.4 1.2 0 .2.1.3.2.5.1.4.3.8.5 1.1.2.4.3.7.5 1.1.1.2.2.5.4.7 0 .1.1.2.1.3.2.3.3.6.5.8.1.3.3.5.5.7.2.3.4.7.7 1 .2.2.3.5.5.7.3.3.5.6.8 1 .2.2.3.4.5.6l.2.2.2.2.1.1c.7.7 1.4 1.4 2.2 2l1.2.9c1.5 1.1 3.1 2 4.8 2.7l25 10.7 1.2.5 107.7 45.8c12.6 5.4 27.4-.6 32.7-13.2l10.6-24.9c5.4-12.6-.6-27.3-13.2-32.7l-85.9-36.5 128.2-301.3c32.1-6 56.4-34.2 56.4-68C868 164 837 133 798.8 133zm27.3 94.7c-6.8 7.3-16.5 11.8-27.3 11.8-20.6 0-37.4-16.8-37.4-37.4 0-.7 0-1.5.1-2.2 1.1-19.6 17.4-35.2 37.4-35.2 20.6 0 37.4 16.8 37.4 37.4 0 9.9-3.9 18.9-10.2 25.6zM392.1 385.2c-1.9-1.6-4-2.9-6.3-3.8l-26-10.8-.3-.1-108.1-44.8c-12.7-5.3-27.4.8-32.6 13.5l-10.4 25c-5.3 12.7.8 27.4 13.5 32.6l86.2 35.8-126.4 304.6c-28.7 8.4-49.7 35-49.7 66.4 0 38.1 31 69.2 69.2 69.2 38.1 0 69.2-31 69.2-69.2 0-16.2-5.6-31.1-15-42.9l132.5-319.5c.4-.7.7-1.4 1-2.1l10.4-25c4.2-10.4 1-22.1-7.2-28.9zM201.2 841c-20.6 0-37.4-16.8-37.4-37.4 0-7.6 2.3-14.6 6.1-20.5 6.7-10.2 18.2-16.9 31.3-16.9 19.3 0 35.2 14.7 37.2 33.5.1 1.3.2 2.6.2 3.9 0 20.6-16.8 37.4-37.4 37.4zM795 736.3c-12.5 0-24.3 3.4-34.5 9.2L435.5 609l-27.1-11.4c-9.7-4-20.6-1.5-27.5 5.6-2.1 2.2-3.9 4.7-5.1 7.7L365 636.6 319.5 745c-5.3 12.7.7 27.4 13.3 32.7l24.9 10.5c12.7 5.3 27.4-.7 32.7-13.3l36.2-86.1 299.9 126c4.5 33.8 33.5 59.9 68.5 59.9 38.1 0 69.2-31 69.2-69.2 0-38.1-31-69.2-69.2-69.2zm0 106.6c-11.3 0-21.4-5-28.2-12.9-5.7-6.6-9.2-15.2-9.2-24.5 0-20.6 16.8-37.4 37.4-37.4 1.9 0 3.7.1 5.6.4 18 2.7 31.9 18.3 31.9 37 0 20.6-16.8 37.4-37.5 37.4z"></path></g><!----><g data-v-423bf9ae="" id="d12670c1-f259-400e-a9d1-e0c5fd0eea5d" fill="white" transform="matrix(1.7079378128566123,0,0,1.7079378128566123,6149.849996832537,50.298914663031915)"><path d="M6.59 9.21L6.59 8.71Q6.59 8.23 6.41 7.87Q6.22 7.50 5.89 7.27Q5.57 7.03 5.15 6.90Q4.73 6.78 4.27 6.78L4.27 6.78Q3.86 6.78 3.50 6.88Q3.14 6.99 2.85 7.18Q2.56 7.38 2.39 7.66Q2.23 7.95 2.23 8.33L2.23 8.33L2.23 8.41Q2.23 8.82 2.39 9.11Q2.56 9.39 2.89 9.60Q3.22 9.80 3.71 9.93Q4.20 10.07 4.86 10.16L4.86 10.16Q6.40 10.40 7.13 11.07Q7.85 11.73 7.85 12.85L7.85 12.85L7.85 13.02Q7.85 13.65 7.64 14.17Q7.42 14.70 6.99 15.08Q6.57 15.46 5.94 15.67Q5.31 15.88 4.48 15.88L4.48 15.88Q3.54 15.88 2.82 15.60Q2.10 15.33 1.62 14.85Q1.13 14.36 0.88 13.71Q0.63 13.06 0.63 12.29L0.63 12.29L0.63 11.87L1.81 11.87L1.81 12.21Q1.81 13.50 2.51 14.14Q3.22 14.78 4.48 14.78L4.48 14.78Q5.57 14.78 6.13 14.30Q6.68 13.82 6.68 13.02L6.68 13.02L6.68 12.94Q6.68 12.17 6.11 11.76Q5.54 11.35 4.27 11.17L4.27 11.17Q3.53 11.07 2.93 10.87Q2.34 10.67 1.92 10.34Q1.50 10.01 1.27 9.55Q1.05 9.09 1.05 8.46L1.05 8.46L1.05 8.29Q1.05 7.71 1.29 7.24Q1.53 6.76 1.95 6.41Q2.38 6.06 2.98 5.87Q3.57 5.68 4.28 5.68L4.28 5.68Q5.11 5.68 5.76 5.92Q6.41 6.16 6.86 6.56Q7.31 6.96 7.54 7.50Q7.77 8.04 7.77 8.62L7.77 8.62L7.77 9.21L6.59 9.21ZM16.41 11.87L16.41 9.69Q16.41 7.78 17.32 6.73Q18.23 5.68 19.85 5.68L19.85 5.68Q21.48 5.68 22.39 6.73Q23.30 7.78 23.30 9.69L23.30 9.69L23.30 11.87Q23.30 13.83 22.39 14.85Q21.48 15.88 19.85 15.88L19.85 15.88Q18.23 15.88 17.32 14.85Q16.41 13.83 16.41 11.87L16.41 11.87ZM19.85 14.78L19.85 14.78Q20.99 14.78 21.55 14.01Q22.12 13.23 22.12 11.79L22.12 11.79L22.12 9.77Q22.12 8.43 21.55 7.60Q20.99 6.78 19.85 6.78L19.85 6.78Q18.72 6.78 18.15 7.60Q17.58 8.43 17.58 9.77L17.58 9.77L17.58 11.79Q17.58 13.23 18.15 14.01Q18.72 14.78 19.85 14.78ZM32.35 15.68L32.35 5.88L33.53 5.88L33.53 14.59L38.65 14.59L38.65 15.68L32.35 15.68ZM47.63 5.88L48.80 5.88L48.80 12.38Q48.80 13.57 49.36 14.17Q49.91 14.78 50.99 14.78L50.99 14.78Q52.07 14.78 52.62 14.17Q53.17 13.57 53.17 12.38L53.17 12.38L53.17 5.88L54.35 5.88L54.35 12.38Q54.35 14.08 53.45 14.98Q52.56 15.88 50.99 15.88L50.99 15.88Q49.42 15.88 48.52 14.98Q47.63 14.08 47.63 12.38L47.63 12.38L47.63 5.88ZM63.11 6.97L63.11 5.88L70 5.88L70 6.97L67.14 6.97L67.14 15.68L65.97 15.68L65.97 6.97L63.11 6.97ZM79.02 6.97L79.02 5.88L85.23 5.88L85.23 6.97L82.71 6.97L82.71 14.59L85.23 14.59L85.23 15.68L79.02 15.68L79.02 14.59L81.54 14.59L81.54 6.97L79.02 6.97ZM94.25 11.87L94.25 9.69Q94.25 7.78 95.16 6.73Q96.07 5.68 97.69 5.68L97.69 5.68Q99.32 5.68 100.23 6.73Q101.14 7.78 101.14 9.69L101.14 9.69L101.14 11.87Q101.14 13.83 100.23 14.85Q99.32 15.88 97.69 15.88L97.69 15.88Q96.07 15.88 95.16 14.85Q94.25 13.83 94.25 11.87L94.25 11.87ZM97.69 14.78L97.69 14.78Q98.83 14.78 99.39 14.01Q99.96 13.23 99.96 11.79L99.96 11.79L99.96 9.77Q99.96 8.43 99.39 7.60Q98.83 6.78 97.69 6.78L97.69 6.78Q96.56 6.78 95.99 7.60Q95.42 8.43 95.42 9.77L95.42 9.77L95.42 11.79Q95.42 13.23 95.99 14.01Q96.56 14.78 97.69 14.78ZM112.35 5.88L115.18 15.18L115.35 15.18L115.35 5.88L116.52 5.88L116.52 15.68L114.17 15.68L111.34 6.38L111.17 6.38L111.17 15.68L110.00 15.68L110.00 5.88L112.35 5.88ZM131.14 9.21L131.14 8.71Q131.14 8.23 130.95 7.87Q130.76 7.50 130.44 7.27Q130.12 7.03 129.70 6.90Q129.28 6.78 128.81 6.78L128.81 6.78Q128.41 6.78 128.04 6.88Q127.68 6.99 127.39 7.18Q127.11 7.38 126.94 7.66Q126.77 7.95 126.77 8.33L126.77 8.33L126.77 8.41Q126.77 8.82 126.94 9.11Q127.11 9.39 127.44 9.60Q127.76 9.80 128.25 9.93Q128.74 10.07 129.40 10.16L129.40 10.16Q130.94 10.40 131.67 11.07Q132.40 11.73 132.40 12.85L132.40 12.85L132.40 13.02Q132.40 13.65 132.18 14.17Q131.96 14.70 131.54 15.08Q131.11 15.46 130.48 15.67Q129.85 15.88 129.02 15.88L129.02 15.88Q128.09 15.88 127.36 15.60Q126.64 15.33 126.16 14.85Q125.68 14.36 125.43 13.71Q125.17 13.06 125.17 12.29L125.17 12.29L125.17 11.87L126.35 11.87L126.35 12.21Q126.35 13.50 127.06 14.14Q127.76 14.78 129.02 14.78L129.02 14.78Q130.12 14.78 130.67 14.30Q131.22 13.82 131.22 13.02L131.22 13.02L131.22 12.94Q131.22 12.17 130.66 11.76Q130.09 11.35 128.81 11.17L128.81 11.17Q128.07 11.07 127.48 10.87Q126.88 10.67 126.46 10.34Q126.04 10.01 125.82 9.55Q125.59 9.09 125.59 8.46L125.59 8.46L125.59 8.29Q125.59 7.71 125.83 7.24Q126.07 6.76 126.50 6.41Q126.92 6.06 127.52 5.87Q128.11 5.68 128.83 5.68L128.83 5.68Q129.65 5.68 130.31 5.92Q130.96 6.16 131.40 6.56Q131.85 6.96 132.08 7.50Q132.31 8.04 132.31 8.62L132.31 8.62L132.31 9.21L131.14 9.21Z"></path></g></svg>