
<svg xmlns="http://www.w3.org/2000/svg" xml:space="preserve" width="2000" height="129"  data-id="lg_HWwyYlTRhtSite0iMI" data-version="1" viewBox="0 0 2000 129"><g data-padding="20"><g transform="translate(89.127 7.563)scale(.88275)"><rect width="165" height="34" fill="white" transform="translate(400.5 381.04)"/><path fill="#272727" d="m912.112 43.51.37-20.69-.09-7.68q0-3.74.37-4.49.19-.19 1.78-.19h4.68q1.97 0 2.25.52.28.51.28 1.07v22.66l.1 14.79-.1 10.21v10.21q0 .65.05 1.82t0 1.5-.19 1.03-.42.84-.84.52q-.84.37-3.7.37t-3.65-.33q-.8-.32-.8-1.73l.19-3.09-.09-10.2-.1-12.27q-.09-2.15-.09-4.87m24.62-8.05 4.4-.09q0 .47.57 2.34.56-.19 3.18-1.13 6.18-2.15 10.25-2.15t7.16 1.26q3.09 1.27 4.78 3.19 1.68 1.92 2.71 5.1 1.5 5.15 1.5 13.67l-.47 16.01q0 1.87-.32 2.15-.33.28-2.63.28-2.29 0-5.29-.37-.28-2.25-.28-7.86l.1-11.99q0-7.49-2.53-11.28t-8.66-3.79-9.32 1.78l.19 12.54q.09 8.43.09 13.11l.19 5.52q0 1.5-.75 1.92t-3.18.42l-4.87-.18-.37-19.57.37-14.23v-3.37q0-3.28 3.18-3.28m56.55-11.98.38 11.98q.56.19 1.31.19l2.15-.1 4.12-.09q4.12 0 4.12 2.06 0 4.59-4.59 4.59l-6.18-.19q-.74 0-1.03.09-.18 7.49-.18 14.05l.09 15.63q0 3.09-1.26 3.89-1.27.8-6.04.8-1.13 0-1.5-.52-.37-.51-.37-1.73l.18-23.6v-4.12q0-2.9.19-4.4h-4.49q-3.37 0-3.37-3.55 0-2.81 3.93-2.81h2.53q1.21 0 1.68-.1-.09-4.21-.09-7.21 0-2.99.23-5.8.24-2.81 1.08-5.9t2.34-4.87q3.56-3.93 11.05-3.93 9.36 0 9.36 3.75 0 2.8-1.97 4.02-.37 0-2.57-.84t-3.7-.84q-4.12 0-5.76 2.34t-1.64 7.21m57.77 31.36q0 9.64-6.6 15.96t-15.82 6.32-15.26-5.8q-6.04-5.81-6.04-15.68 0-9.88 6.41-15.54 6.41-5.67 17.65-5.67 6.27 0 12.45 3.93 3.18 2.16 5.2 6.42 2.01 4.26 2.01 10.06m-21.16 15.36q5.9 0 9.5-4.26 3.61-4.26 3.61-10.54 0-6.27-3.14-10.39-3.13-4.12-9.17-4.12t-10.11 3.75q-4.08 3.74-4.08 10.67t3.75 10.91q3.74 3.98 9.64 3.98m39.42-21.25-.19 13.48q0 3.84 1.31 5.86 1.31 2.01 4.4 2.01t5.24-.56q4.03-1.13 4.03 1.12 0 6.27-11.61 6.27-6.55 0-10.2-5.89-1.78-3.75-1.78-8.9l.18-10.86.19-7.86q0-1.31-.37-1.64-.38-.33-1.41-.33l-3.65.28q-2.34 0-2.34-1.5 0-2.62.61-3.7.61-1.07 2.29-1.07l3.65.28q1.32 0 1.32-3.18v-5.81q0-2.43.09-2.81 1.12-.56 7.4-.56 1.68 0 1.68 1.78l-.28 10.3q1.12.09 3.65.09l7.49-.56q1.5 0 1.5 1.78 0 5.15-5.06 5.15l-6.08-.38q-1.5 0-1.87.19-.19 1.69-.19 7.02m45.13 27.14q-2.81 0-2.63-3.09 0-1.03-.28-1.03-.75.29-2.99 1.6-11.14 6.83-19.57.84-3.84-2.72-3.84-7.49 0-7.21 6.7-10.49 6.69-3.27 16.61-3.27 1.78 0 2.63.09 0-1.59.09-2.25 0-5.33-2.95-8t-8.19-2.67q-2.53 0-5.43.75-2.91.75-3.75.75t-1.36-1.03q-.51-1.03-.51-2.72 0-1.68 4.17-2.67 4.16-.98 8-.98 9.08 0 13.81 4.78 4.73 4.77 4.73 13.95v19.28q0 2.53-.94 3.09-.93.56-4.3.56m-3.47-9.83q.19-2.62.19-5.61 0-3-.09-3.37-12.93 1.21-15.73 4.68-1.5 1.78-1.5 4.12 0 4.96 7.39 4.96 3.75 0 6.7-1.73 2.95-1.74 3.04-3.05m50 3.29q1.59 0 1.59 2.25 0 5.33-13.86 5.33-5.9 0-10.48-1.87-4.59-1.87-7.12-4.87-5.24-6.18-5.24-13.76 0-9.74 7.3-15.78 7.3-6.03 18.16-6.03 10.87 0 10.87 3.08 0 2.16-.75 2.44t-1.13.28h-1.68q-11.14 0-17.32 3.23t-6.18 11.09q0 7.87 4.73 11.94 4.72 4.07 13.24 4.07 1.97 0 4.5-.7t3.37-.7m18.82-20.6-.19 13.48q0 3.84 1.31 5.86 1.31 2.01 4.4 2.01t5.24-.56q4.03-1.13 4.03 1.12 0 6.27-11.61 6.27-6.55 0-10.2-5.89-1.78-3.75-1.78-8.9l.18-10.86.19-7.86q0-1.31-.37-1.64-.38-.33-1.41-.33l-3.65.28q-2.34 0-2.34-1.5 0-2.62.61-3.7.61-1.07 2.29-1.07l3.65.28q1.31 0 1.31-3.18v-5.81q0-2.43.1-2.81 1.12-.56 7.39-.56 1.69 0 1.69 1.78l-.28 10.3q1.12.09 3.65.09l7.49-.56q1.5 0 1.5 1.78 0 5.15-5.06 5.15l-6.08-.38q-1.5 0-1.88.19-.18 1.69-.18 7.02"/><path fill="#3d9970" d="M819.302 44.94a65.607 31.735-45 1 0 44.88 44.88 65.607 31.735-45 1 0-44.88-44.88"/><path fill="#ffdc00" d="M810.452 66.19a33.32 68.884 0 1 0 66.64 0 33.32 68.884 0 1 0-66.64 0"/><path fill="#0074d9" d="M819.462 89.94a33.658 69.584-45 1 0 47.6-47.6 33.658 69.584-45 1 0-47.6 47.6"/><rect width="165" height="34" fill="white" transform="translate(531.95 436.74)"/><path d="M1090.772 114.04q-1.73 0-3.06-.3-1.33-.31-2.11-.63l-.77-.33-.18-.43.14-.49q.15-.48.34-1.35.2-.86.44-1.98.23-1.11.37-2.37l2.09-.22q-.29 2.38-.09 3.66.2 1.27 1.05 1.74.84.47 2.53.47 2.13 0 3.46-1.04 1.33-1.05 1.33-2.78 0-1.36-1.11-2.3-1.12-.94-2.67-1.8-1.29-.76-2.61-1.6-1.31-.85-2.18-1.96-.86-1.12-.86-2.74 0-2.09 1.15-3.74 1.15-1.66 3.21-2.65 2.05-.99 4.6-.99 1.66 0 2.94.22 1.28.21 2.07.45l.79.23.11.29-.24.84q-.23.85-.59 2.24-.36 1.38-.68 3.04l-1.88.18-.25-.22.11-.38q.11-.37.18-.93t.07-1.03q0-1.37-.79-1.94-.79-.58-2.7-.58-1.84 0-3.1.97-1.26.98-1.26 2.45 0 1.08.74 1.87.74.8 1.86 1.55 1.08.65 2.3 1.33 1.22.69 2.3 1.46 1.08.78 1.77 1.8.68 1.03.68 2.4 0 2.16-1.19 3.88-1.18 1.73-3.33 2.72-2.14.99-4.98.99m17.13-.01q-2.01 0-3.25-1.65-1.25-1.66-1.25-4.47 0-2.3.65-4.3t1.84-3.55q1.19-1.54 2.72-2.43 1.53-.88 3.29-.88 2.12 0 3.35 1.48 1.22 1.47 1.22 4.17 0 2.42-.66 4.52-.67 2.11-1.82 3.71t-2.72 2.5-3.37.9m1.44-2.34q1.08 0 1.91-.92.83-.91 1.3-2.59.47-1.67.47-3.94 0-2.34-.69-3.62-.68-1.28-1.94-1.28-1.05 0-1.87.87-.83.86-1.3 2.41t-.47 3.6q0 2.52.72 4 .72 1.47 1.87 1.47m12.96-1.07.11.15q.29 0 .74-.36t1.93-1.62l.5.03.54 1.05q-1.37 1.4-2.43 2.34-1.06.93-1.82 1.38-.75.45-1.29.45-1.37 0-1.37-1.33 0-.14.18-1.37.18-1.22.47-3.11.28-1.89.64-4.14t.72-4.52.65-4.21q.29-1.95.47-3.26t.18-1.6q0-1.41-1.44-1.41h-1.37l.25-1.69q.9 0 1.98-.03 1.08-.04 2.07-.08.99-.03 1.61-.09l.61-.05.39.5-.23 1.08-.63 2.97q-.4 1.89-.86 4.25-.47 2.36-.96 4.95-.48 2.59-.92 5.1-.43 2.5-.72 4.62m9.72 3.38q-1.62 0-2.57-.87-.95-.86-.95-2.3 0-.61.25-1.69t.63-2.38l.75-2.57q.38-1.28.63-2.31.26-1.02.26-1.49 0-1.26-1.44-1.26h-1.37l.32-1.69q.76 0 1.84-.04t2.25-.11 2.18-.11l.36.47q-.98 2.85-1.73 5.29-.76 2.45-1.21 4.14-.45 1.7-.45 2.31 0 .57.24.86.23.29.73.29.65 0 1.75-1.39 1.1-1.38 2.43-3.87 1.33-2.48 2.7-5.79l-.61 6.55-.9-.25q-1.51 2.99-3.01 5.02-1.49 2.03-3.08 3.19m6.34.03q-1.4 0-1.4-1.15 0-.22.1-.77.11-.56.31-1.53l.5-2.45q.31-1.48.78-3.46l.11-1.69.97-5.76.39-.18 2.81.29.29.36q-.54 1.8-1.12 4.07-.57 2.26-1.06 4.53-.48 2.27-.77 4.18l.14.14q.18 0 .4-.12.21-.13.7-.54.49-.42 1.39-1.17l.5.03.54 1.05q-1.58 1.58-2.65 2.48-1.06.9-1.74 1.3-.69.39-1.19.39m15.37-5.54.54.03.47 1.08q-1.01 1.23-2.07 2.24-1.06 1-1.94 1.6-.89.59-1.46.59-1.37 0-2.07-.77-.7-.78-.56-2.14l1.91-11.67-.22-.14-2.37-.11-.11-.18.18-1.3 2.81-.46q.14-1.01.27-1.98.12-.98.21-1.62l.09-.65 3.82-1.26.25.43-.2.72q-.2.72-.52 1.91t-.65 2.55l4.21-.03.15.14-.33 1.69-4.06-.03-.4.21-2.02 10.23q-.18 1.22.8 1.22.46 0 1.2-.52t2.07-1.78m6.77 2.13.14.15q.26 0 .71-.36t1.92-1.62l.51.03.54 1.05q-1.37 1.47-2.43 2.39-1.07.92-1.82 1.35-.76.43-1.3.43-1.33 0-1.33-1.47.54-3.17.94-5.75.39-2.57.61-4.24.21-1.68.21-2 0-.79-.32-1.12-.32-.32-1.12-.32h-1.36l.28-1.69q.8 0 1.89-.04 1.1-.04 2.25-.11 1.16-.07 2.13-.11l.36.47q-.54 1.84-1.08 4.14-.54 2.31-.99 4.61t-.74 4.21m.9-17.42q-.94 0-1.37-.56t-.43-1.31q0-1.16.77-1.95.78-.79 1.93-.79.9 0 1.35.56t.45 1.31q0 1.15-.77 1.95-.78.79-1.93.79m9.24 20.83q-2.01 0-3.26-1.65-1.24-1.66-1.24-4.47 0-2.3.65-4.3t1.84-3.55q1.18-1.54 2.71-2.43 1.53-.88 3.3-.88 2.12 0 3.35 1.48 1.22 1.47 1.22 4.17 0 2.42-.67 4.52-.66 2.11-1.81 3.71-1.16 1.6-2.72 2.5-1.57.9-3.37.9m1.44-2.34q1.08 0 1.91-.92.83-.91 1.3-2.59.46-1.67.46-3.94 0-2.34-.68-3.62t-1.94-1.28q-1.05 0-1.88.87-.82.86-1.29 2.41t-.47 3.6q0 2.52.72 4 .72 1.47 1.87 1.47m19.84 2.32q-1.37 0-1.37-1.26 0-.62.27-1.68t.67-2.32q.39-1.26.79-2.56.39-1.29.65-2.39.25-1.1.25-1.78 0-.61-.31-1.01-.3-.4-.77-.4-.72 0-1.78 1.34-1.07 1.33-2.29 3.65t-2.41 5.38l.29-5.58.72.29q1.69-3.42 3.42-5.72 1.72-2.31 3.24-3.21 1.4 0 2.32.99t.92 2.54q0 .86-.36 2.18-.36 1.31-.85 2.82-.49 1.52-.95 2.9-.47 1.39-.69 2.43l.11.15q.18 0 .4-.13.21-.13.73-.58.53-.45 1.5-1.31l.54.07.5 1.05q-1.4 1.44-2.45 2.35-1.04.92-1.8 1.35-.75.44-1.29.44m-9.18-.08-.36-.43q.36-2.01.7-4.12t.63-3.98.45-3.17q.16-1.29.2-1.65 0-.76-.33-1.1-.32-.34-1.15-.34h-1.37l.29-1.69q.97 0 2.74-.08 1.76-.07 3.53-.18l.32.51q-.4 1.19-.81 2.73-.41 1.55-.74 3.06-.32 1.52-.5 2.7l-.22 2.74-.54 3.96q0 .18-.52.43t-1.17.43-1.15.18"/></g><path fill="transparent" stroke="transparent" stroke-width=".92" d="M775.94 0h453.597v118.69H775.941z"/></g></svg>
